<?xml version="1.0" encoding="UTF-8" standalone="no"?>
<svg
   viewBox="0 0 1920 1080"
   version="1.1"
   id="svg32"
   sodipodi:docname="NES Logo Horizontal 1.svg"
   inkscape:version="1.4 (86a8ad7, 2024-10-11)"
   xmlns:inkscape="http://www.inkscape.org/namespaces/inkscape"
   xmlns:sodipodi="http://sodipodi.sourceforge.net/DTD/sodipodi-0.dtd"
   xmlns="http://www.w3.org/2000/svg"
   xmlns:svg="http://www.w3.org/2000/svg">
  <sodipodi:namedview
     id="namedview32"
     pagecolor="#ffffff"
     bordercolor="#000000"
     borderopacity="0.25"
     inkscape:showpageshadow="2"
     inkscape:pageopacity="0.0"
     inkscape:pagecheckerboard="0"
     inkscape:deskcolor="#d1d1d1"
     inkscape:zoom="0.85787035"
     inkscape:cx="617.22613"
     inkscape:cy="378.84512"
     inkscape:window-width="1245"
     inkscape:window-height="1224"
     inkscape:window-x="1047"
     inkscape:window-y="202"
     inkscape:window-maximized="0"
     inkscape:current-layer="Layer_2" />
  <defs
     id="defs1">
    <style
       id="style1">.cls-1,.cls-2{fill:#c9cac8;}.cls-2{stroke:#424242;stroke-miterlimit:10;stroke-width:7px;}.cls-3{fill:#424242;}.cls-4{fill:#c1002a;fill-rule:evenodd;}</style>
  </defs>
  <g
     id="Layer_2"
     data-name="Layer 2"
     inkscape:export-filename="NESLogo.png"
     inkscape:export-xdpi="92.753624"
     inkscape:export-ydpi="92.753624">
    <rect
       class="cls-1"
       x="872.56"
       y="493.32"
       width="16.25"
       height="93.12"
       transform="translate(339.86 1419.98) rotate(-89.94)"
       id="rect1" />
    <rect
       class="cls-1"
       x="872.53"
       y="524.98"
       width="16.25"
       height="93.12"
       transform="translate(308.16 1451.58) rotate(-89.94)"
       id="rect2" />
    <rect
       class="cls-1"
       x="872.59"
       y="461.65"
       width="16.25"
       height="93.12"
       transform="translate(371.57 1388.38) rotate(-89.94)"
       id="rect3" />
    <polygon
       class="cls-1"
       points="704.35 535.53 704.3 579.51 723.97 579.53 724 551.2 704.35 535.53"
       id="polygon3" />
    <polygon
       class="cls-1"
       points="792.11 499.96 792.05 554.12 724.05 499.89 704.39 499.87 704.38 510.05 792.02 579.6 811.68 579.62 811.77 499.98 792.11 499.96"
       id="polygon4" />
    <path
       class="cls-1"
       d="M1035.45,503.94l0,17.83c-9.75-4.26-24.69-7.58-37.54-7.59-21.49,0-28.89,4.11-28.89,9,0,4.77,6.91,5.88,17.45,6.78l23.38,2c24.11,2.07,36.48,7.59,36.47,23.26v.11c0,22.86-27.87,27.23-49.89,27.21a102.15,102.15,0,0,1-46.6-11.06l0-19.14c14,8.41,29.34,13.4,46.7,13.42,16.2,0,29.89-2.69,29.89-9.61,0-5.14-7.28-6.88-19.81-7.94l-21.07-1.81c-23.28-2-36.43-8.21-36.42-22.53,0-16.46,17.44-26.56,46.17-26.53C1018.15,497.42,1032.56,502.68,1035.45,503.94Z"
       id="path4" />
    <line
       class="cls-2"
       x1="1077.33"
       y1="619"
       x2="1077.33"
       y2="462"
       id="line4" />
    <path
       class="cls-3"
       d="M1144.8,501.66h-9.21L1122,477.77v23.89h-9.26V463.27H1122l13.58,23.89V463.27h9.23Z"
       id="path5" />
    <path
       class="cls-3"
       d="M1174.46,485.36H1159.9v9.18h17.2v7.12h-26.45V463.27h26.5v7.14H1159.9v8.1h14.56Z"
       id="path6" />
    <path
       class="cls-3"
       d="M1211.53,470.41H1200v31.25h-9.26V470.41h-11.31v-7.14h32.09Z"
       id="path7" />
    <path
       class="cls-3"
       d="M1245.57,487.34l4.4-24.07h9.18L1251,501.66h-9.59l-5.15-21.89-5,21.89h-9.57l-8.18-38.39h9.2l4.41,24.07,5.27-24.07h7.86Z"
       id="path8" />
    <path
       class="cls-3"
       d="M1295.27,483.25a22.59,22.59,0,0,1-2.08,9.94,15.32,15.32,0,0,1-5.92,6.66,16.45,16.45,0,0,1-8.74,2.34,16.74,16.74,0,0,1-8.7-2.26,15.31,15.31,0,0,1-5.92-6.45,21.88,21.88,0,0,1-2.23-9.62V481.7a22.79,22.79,0,0,1,2.07-10,15.36,15.36,0,0,1,5.93-6.65,16.58,16.58,0,0,1,8.8-2.35,16.41,16.41,0,0,1,8.7,2.32,15.59,15.59,0,0,1,5.94,6.61,21.89,21.89,0,0,1,2.15,9.82Zm-9.41-1.6c0-3.82-.64-6.71-1.91-8.69a6.14,6.14,0,0,0-5.47-3q-7,0-7.36,10.44l0,2.82q0,5.65,1.88,8.68a6.51,6.51,0,0,0,11,.05q1.89-3,1.92-8.57Z"
       id="path9" />
    <path
       class="cls-3"
       d="M1314.31,488.08h-5v13.58h-9.25V463.27h15.1q6.84,0,10.68,3a10.25,10.25,0,0,1,3.85,8.56,12.43,12.43,0,0,1-1.62,6.63,11.49,11.49,0,0,1-5.07,4.27l8,15.5v.4h-9.91Zm-5-7.12h5.85a5.24,5.24,0,0,0,4-1.39,5.33,5.33,0,0,0,1.33-3.87,5.4,5.4,0,0,0-1.34-3.9,5.23,5.23,0,0,0-4-1.41h-5.85Z"
       id="path10" />
    <path
       class="cls-3"
       d="M1348.32,487.37l-3.79,4.16v10.13h-9.26V463.27h9.26V480.2l3.21-4.88,8.28-12.05h11.45l-13,17,13,21.41h-11Z"
       id="path11" />
    <path
       class="cls-3"
       d="M1393.62,485.36h-14.55v9.18h17.19v7.12h-26.45V463.27h26.5v7.14h-17.24v8.1h14.55Z"
       id="path12" />
    <path
       class="cls-3"
       d="M1400,501.66V463.27h12.37a18.29,18.29,0,0,1,9.15,2.3,16.25,16.25,0,0,1,6.34,6.52,19.54,19.54,0,0,1,2.3,9.42v1.77a19.79,19.79,0,0,1-2.22,9.45,16.27,16.27,0,0,1-6.28,6.54,17.76,17.76,0,0,1-9,2.39Zm9.26-31.25v24.13h3.21a7.2,7.2,0,0,0,6.12-2.84q2.13-2.82,2.13-8.42v-1.66c0-3.71-.71-6.5-2.13-8.39a7.32,7.32,0,0,0-6.22-2.82Z"
       id="path13" />
    <path
       class="cls-3"
       d="M1136.54,539.36H1122v9.18h17.19v7.12h-26.45V517.27h26.5v7.14H1122v8.1h14.55Z"
       id="path14" />
    <path
       class="cls-3"
       d="M1155.11,517.27l8.56,26.71,8.55-26.71h12.18v38.39h-9.28v-9l.89-18.35-9.28,27.32h-6.11l-9.31-27.34.9,18.37v9H1143V517.27Z"
       id="path15" />
    <path
       class="cls-3"
       d="M1190.28,555.66V517.27h13.79q7.41,0,11.27,2.71a10,10,0,0,1,2.49,13,8,8,0,0,1-4,3.11,8.05,8.05,0,0,1,4.61,2.95,8.53,8.53,0,0,1,1.61,5.27q0,5.65-3.57,8.48t-10.59,2.89Zm9.25-22.39h4.83a6.81,6.81,0,0,0,4.32-1.11,4,4,0,0,0,1.3-3.2,4.13,4.13,0,0,0-1.4-3.5,7.45,7.45,0,0,0-4.51-1.07h-4.54Zm0,6.07v9.2h6.07a5.75,5.75,0,0,0,3.85-1.15,4,4,0,0,0,1.34-3.23q0-4.8-4.77-4.82Z"
       id="path16" />
    <path
       class="cls-3"
       d="M1248.92,539.36h-14.55v9.18h17.19v7.12h-26.45V517.27h26.5v7.14h-17.24v8.1h14.55Z"
       id="path17" />
    <path
       class="cls-3"
       d="M1255.33,555.66V517.27h12.36a18.23,18.23,0,0,1,9.15,2.3,16.18,16.18,0,0,1,6.34,6.52,19.66,19.66,0,0,1,2.31,9.42v1.77a19.68,19.68,0,0,1-2.23,9.45,16.19,16.19,0,0,1-6.27,6.54,17.76,17.76,0,0,1-9,2.39Zm9.25-31.25v24.13h3.22a7.22,7.22,0,0,0,6.12-2.84q2.13-2.82,2.13-8.42v-1.66c0-3.71-.71-6.5-2.13-8.39a7.34,7.34,0,0,0-6.23-2.82Z"
       id="path18" />
    <path
       class="cls-3"
       d="M1290.24,555.66V517.27h12.36a18.23,18.23,0,0,1,9.15,2.3,16.18,16.18,0,0,1,6.34,6.52,19.66,19.66,0,0,1,2.31,9.42v1.77a19.68,19.68,0,0,1-2.23,9.45,16.19,16.19,0,0,1-6.27,6.54,17.76,17.76,0,0,1-9,2.39Zm9.25-31.25v24.13h3.22a7.22,7.22,0,0,0,6.12-2.84q2.13-2.82,2.13-8.42v-1.66c0-3.71-.71-6.5-2.13-8.39a7.34,7.34,0,0,0-6.23-2.82Z"
       id="path19" />
    <path
       class="cls-3"
       d="M1349,539.36H1334.4v9.18h17.19v7.12h-26.44V517.27h26.5v7.14H1334.4v8.1H1349Z"
       id="path20" />
    <path
       class="cls-3"
       d="M1355.36,555.66V517.27h12.37a18.29,18.29,0,0,1,9.15,2.3,16.18,16.18,0,0,1,6.34,6.52,19.66,19.66,0,0,1,2.31,9.42v1.77a19.68,19.68,0,0,1-2.23,9.45,16.27,16.27,0,0,1-6.28,6.54,17.71,17.71,0,0,1-9,2.39Zm9.26-31.25v24.13h3.22a7.19,7.19,0,0,0,6.11-2.84q2.15-2.82,2.14-8.42v-1.66c0-3.71-.71-6.5-2.14-8.39a7.31,7.31,0,0,0-6.22-2.82Z"
       id="path21" />
    <path
       class="cls-3"
       d="M1132.54,599.45a3.8,3.8,0,0,0-1.44-3.16,17.78,17.78,0,0,0-5-2.35,48.12,48.12,0,0,1-5.91-2.34c-5-2.45-7.46-5.8-7.46-10.08a9,9,0,0,1,1.86-5.62,12,12,0,0,1,5.26-3.8,20.4,20.4,0,0,1,7.65-1.36,17.81,17.81,0,0,1,7.42,1.48,11.68,11.68,0,0,1,5.1,4.2,11,11,0,0,1,1.82,6.24h-9.23a4.63,4.63,0,0,0-1.44-3.64,5.58,5.58,0,0,0-3.88-1.29,6.32,6.32,0,0,0-3.92,1.09,3.22,3.22,0,0,0,.14,5.46,19.92,19.92,0,0,0,5.57,2.48,34.49,34.49,0,0,1,6.54,2.75q6.23,3.59,6.22,9.89a9.37,9.37,0,0,1-3.8,7.91q-3.79,2.88-10.41,2.88a20.6,20.6,0,0,1-8.45-1.68,12.66,12.66,0,0,1-5.7-4.59,12,12,0,0,1-1.91-6.71h9.28a5.86,5.86,0,0,0,1.6,4.55c1.06,1,2.79,1.46,5.18,1.46a5.92,5.92,0,0,0,3.62-1A3.27,3.27,0,0,0,1132.54,599.45Z"
       id="path22" />
    <path
       class="cls-3"
       d="M1160.59,587.93l7.07-16.66h10l-12.37,24.6v13.79h-9.38V595.87l-12.34-24.6h9.94Z"
       id="path23" />
    <path
       class="cls-3"
       d="M1199.82,599.45a3.82,3.82,0,0,0-1.43-3.16,17.78,17.78,0,0,0-5.05-2.35,48.12,48.12,0,0,1-5.91-2.34c-5-2.45-7.46-5.8-7.46-10.08a9,9,0,0,1,1.86-5.62,12,12,0,0,1,5.26-3.8,20.4,20.4,0,0,1,7.65-1.36,17.81,17.81,0,0,1,7.42,1.48,11.68,11.68,0,0,1,5.1,4.2,11,11,0,0,1,1.82,6.24h-9.23a4.63,4.63,0,0,0-1.44-3.64,5.59,5.59,0,0,0-3.89-1.29,6.3,6.3,0,0,0-3.91,1.09,3.22,3.22,0,0,0,.14,5.46,19.92,19.92,0,0,0,5.57,2.48,34.49,34.49,0,0,1,6.54,2.75q6.21,3.59,6.22,9.89a9.37,9.37,0,0,1-3.8,7.91q-3.79,2.88-10.41,2.88a20.6,20.6,0,0,1-8.45-1.68,12.66,12.66,0,0,1-5.7-4.59,12,12,0,0,1-1.91-6.71h9.28a5.86,5.86,0,0,0,1.6,4.55c1.06,1,2.79,1.46,5.18,1.46a5.94,5.94,0,0,0,3.62-1A3.27,3.27,0,0,0,1199.82,599.45Z"
       id="path24" />
    <path
       class="cls-3"
       d="M1244,578.41h-11.52v31.25h-9.25V578.41h-11.32v-7.14H1244Z"
       id="path25" />
    <path
       class="cls-3"
       d="M1271.67,593.36h-14.55v9.18h17.19v7.12h-26.44V571.27h26.49v7.14h-17.24v8.1h14.55Z"
       id="path26" />
    <path
       class="cls-3"
       d="M1290.24,571.27l8.57,26.71,8.54-26.71h12.18v38.39h-9.28v-9l.9-18.35-9.28,27.32h-6.12l-9.31-27.34.9,18.37v9h-9.26V571.27Z"
       id="path27" />
    <path
       class="cls-3"
       d="M1345.21,599.45a3.82,3.82,0,0,0-1.43-3.16,17.92,17.92,0,0,0-5-2.35,48.12,48.12,0,0,1-5.91-2.34c-5-2.45-7.46-5.8-7.46-10.08a9,9,0,0,1,1.86-5.62,12,12,0,0,1,5.26-3.8,20.35,20.35,0,0,1,7.64-1.36,17.86,17.86,0,0,1,7.43,1.48,11.68,11.68,0,0,1,5.1,4.2,11,11,0,0,1,1.82,6.24h-9.23a4.63,4.63,0,0,0-1.44-3.64,5.6,5.6,0,0,0-3.89-1.29,6.3,6.3,0,0,0-3.91,1.09,3.22,3.22,0,0,0,.14,5.46,19.92,19.92,0,0,0,5.57,2.48,34.49,34.49,0,0,1,6.54,2.75q6.21,3.59,6.22,9.89a9.37,9.37,0,0,1-3.8,7.91q-3.8,2.88-10.41,2.88a20.56,20.56,0,0,1-8.45-1.68,12.6,12.6,0,0,1-5.7-4.59,11.91,11.91,0,0,1-1.91-6.71h9.28a5.86,5.86,0,0,0,1.6,4.55c1.06,1,2.79,1.46,5.18,1.46a5.94,5.94,0,0,0,3.62-1A3.27,3.27,0,0,0,1345.21,599.45Z"
       id="path28" />
    <path
       class="cls-3"
       d="M1381.92,602.54H1398v7.12h-25.37V571.27h9.26Z"
       id="path29" />
    <path
       class="cls-3"
       d="M1424.24,602.49h-12.69l-2.21,7.17h-9.89l14.08-38.39h8.7l14.19,38.39h-9.94Zm-10.47-7.15H1422L1417.88,582Z"
       id="path30" />
    <path
       class="cls-3"
       d="M1439.21,609.66V571.27H1453q7.41,0,11.27,2.71a9,9,0,0,1,3.87,7.89,9.19,9.19,0,0,1-1.37,5.09,8.05,8.05,0,0,1-4,3.11,8.08,8.08,0,0,1,4.62,2.95,8.59,8.59,0,0,1,1.6,5.27q0,5.65-3.57,8.48t-10.59,2.89Zm9.26-22.39h4.82a6.86,6.86,0,0,0,4.33-1.11,3.94,3.94,0,0,0,1.29-3.2,4.13,4.13,0,0,0-1.4-3.5,7.43,7.43,0,0,0-4.51-1.07h-4.53Zm0,6.07v9.2h6.06a5.75,5.75,0,0,0,3.85-1.15,4,4,0,0,0,1.35-3.23c0-3.2-1.6-4.81-4.78-4.82Z"
       id="path31" />
    <path
       class="cls-4"
       d="M599.66,643.5l-148-148V459.9l183.6,183.6Zm-89-207,148,148v35.59L475.05,436.5Zm125.18,22.84h-58.6V436.5h81.43v81.44H635.82ZM474.5,620.66h58.6V643.5H451.66V562.06H474.5Z"
       id="path32"
       inkscape:export-filename="NESLogoCube.png"
       inkscape:export-xdpi="92.753624"
       inkscape:export-ydpi="92.753624" />
  </g>
</svg>
