<?xml version="1.0" encoding="UTF-8" standalone="no"?>
<!-- Generator: Adobe Illustrator 21.1.0, SVG Export Plug-In . SVG Version: 6.00 Build 0)  -->

<svg
   version="1.1"
   id="Ebene_1"
   x="0px"
   y="0px"
   viewBox="0 0 187.00001 55.000001"
   xml:space="preserve"
   sodipodi:docname="tud_logo.svg"
   width="187"
   height="55"
   inkscape:version="1.4.3 (0d15f75, 2025-12-25)"
   xmlns:inkscape="http://www.inkscape.org/namespaces/inkscape"
   xmlns:sodipodi="http://sodipodi.sourceforge.net/DTD/sodipodi-0.dtd"
   xmlns="http://www.w3.org/2000/svg"
   xmlns:svg="http://www.w3.org/2000/svg"><defs
   id="defs1" /><sodipodi:namedview
   id="namedview1"
   pagecolor="#ffffff"
   bordercolor="#000000"
   borderopacity="0.25"
   inkscape:showpageshadow="2"
   inkscape:pageopacity="0.0"
   inkscape:pagecheckerboard="0"
   inkscape:deskcolor="#d1d1d1"
   inkscape:zoom="5.9124442"
   inkscape:cx="83.806288"
   inkscape:cy="54.630537"
   inkscape:window-width="2664"
   inkscape:window-height="1224"
   inkscape:window-x="119"
   inkscape:window-y="85"
   inkscape:window-maximized="0"
   inkscape:current-layer="Ebene_1" />
<style
   type="text/css"
   id="style1">
	.st0{fill:#00305D;}
</style>
<path
   class="st0"
   d="M 71.207007,5.153928 V 16.300425 H 68.55308 V 5.153928 H 65.049895 V 2.8184715 h 9.660297 V 5.153928 Z m 5.944799,11.146497 V 2.8184715 h 8.917197 V 5.153928 h -6.26327 v 3.1847133 h 5.307856 v 2.3354567 h -5.307856 v 3.29087 h 6.26327 v 2.335457 z m 19.426751,-0.955414 c -0.849257,0.743099 -2.016985,1.061571 -3.290871,1.061571 -1.486199,0 -2.653927,-0.530786 -3.609341,-1.4862 -0.530786,-0.636943 -0.955414,-1.273885 -1.061572,-2.016985 -0.106157,-0.7431 -0.212314,-1.910828 -0.212314,-3.3970275 0,-1.4861996 0.106157,-2.6539278 0.212314,-3.3970275 0.106158,-0.7430998 0.530786,-1.4861996 1.061572,-2.0169851 0.955414,-0.955414 2.229299,-1.4861996 3.609341,-1.4861996 1.273886,0 2.441614,0.3184714 3.290871,1.0615711 0.849257,0.7430998 1.486199,1.8046709 1.698513,3.1847133 H 95.623143 C 95.516986,6.3216562 95.198514,5.7908706 94.880043,5.4723993 94.455414,5.153928 94.030786,4.9416138 93.393843,4.9416138 c -0.743099,0 -1.273885,0.2123142 -1.698513,0.7430997 -0.106157,0.1061571 -0.212315,0.3184714 -0.318472,0.5307856 -0.106157,0.2123142 -0.106157,0.4246284 -0.212314,0.6369426 0,0.3184714 -0.106157,0.6369427 -0.106157,1.0615711 0,0.4246285 0,0.955414 0,1.5923567 0,0.6369425 0,1.1677285 0,1.5923565 0,0.424629 0.106157,0.7431 0.106157,1.061571 0,0.318472 0.106157,0.530786 0.212314,0.636943 0.106157,0.212314 0.212315,0.318471 0.318472,0.530785 0.424628,0.424629 0.955414,0.7431 1.698513,0.7431 0.636943,0 1.167729,-0.212314 1.4862,-0.530785 0.424628,-0.318472 0.636943,-0.849257 0.7431,-1.380043 h 2.653927 c -0.212314,1.380043 -0.743099,2.441614 -1.698513,3.184714 z m 11.464963,0.955414 v -5.626327 h -4.56475 v 5.626327 h -2.65393 V 2.8184715 h 2.65393 v 5.5201698 h 4.56475 V 2.8184715 h 2.65393 V 16.300425 Z m 13.90659,0 -5.30786,-8.2802551 v 8.2802551 h -2.65393 V 2.8184715 h 2.33546 l 5.30785,8.2802545 V 2.8184715 h 2.65393 V 16.300425 Z m 5.73248,0 V 2.8184715 h 2.65393 V 16.300425 Z m 13.3758,-0.955414 c -0.95542,0.743099 -2.12315,1.061571 -3.60935,1.061571 -1.06157,0 -2.01698,-0.106157 -2.76008,-0.424629 -0.7431,-0.318471 -1.4862,-0.7431 -2.12314,-1.380042 l 1.69851,-1.698514 c 0.42463,0.424628 0.84926,0.7431 1.38004,0.849257 0.53079,0.212314 1.16773,0.212314 1.80467,0.212314 1.59236,0 2.44162,-0.530785 2.44162,-1.698514 0,-0.424628 -0.10616,-0.849257 -0.31847,-1.061571 -0.21232,-0.212314 -0.63695,-0.424628 -1.27389,-0.530785 l -0.7431,-0.106157 -0.84926,-0.106158 c -1.16772,-0.212314 -2.01698,-0.5307851 -2.65392,-1.1677277 -0.63695,-0.6369427 -0.95542,-1.4861996 -0.95542,-2.6539278 0,-1.2738853 0.42463,-2.2292993 1.27389,-2.9723991 0.84925,-0.7430997 2.01698,-1.1677282 3.39703,-1.1677282 0.95541,0 1.80467,0.1061571 2.44161,0.3184713 0.7431,0.2123143 1.38004,0.6369427 1.91083,1.1677283 l -1.69852,1.6985137 c -0.42463,-0.3184713 -0.84925,-0.6369426 -1.27388,-0.7430997 -0.42463,-0.1061572 -0.95542,-0.2123143 -1.4862,-0.2123143 -0.63694,0 -1.16773,0.2123143 -1.59236,0.5307856 -0.31847,0.3184713 -0.53078,0.7430998 -0.53078,1.2738853 0,0.3184713 0.10615,0.6369427 0.42462,0.955414 0.31848,0.3184713 0.63695,0.4246284 1.27389,0.5307855 l 0.84926,0.1061572 0.7431,0.1061571 c 0.63694,0.1061571 1.16772,0.2123142 1.4862,0.4246284 0.42462,0.2123142 0.7431,0.4246284 1.06157,0.6369427 0.7431,0.6369426 1.06157,1.5923567 1.06157,2.8662417 0,1.4862 -0.42463,2.441614 -1.38004,3.184714 z m 11.88959,0 c -0.84925,0.743099 -2.01698,1.061571 -3.29087,1.061571 -1.4862,0 -2.65393,-0.530786 -3.60934,-1.4862 -0.53079,-0.636943 -0.95541,-1.273885 -1.06157,-2.016985 -0.10616,-0.7431 -0.21232,-1.910828 -0.21232,-3.3970275 0,-1.4861996 0.10616,-2.6539278 0.21232,-3.3970275 0.10616,-0.7430998 0.53078,-1.4861996 1.06157,-2.0169851 0.95541,-0.955414 2.2293,-1.4861996 3.60934,-1.4861996 1.27389,0 2.44162,0.3184714 3.29087,1.0615711 0.84926,0.7430998 1.4862,1.8046709 1.69852,3.1847133 h -2.65393 c -0.10616,-0.5307855 -0.42463,-1.0615711 -0.7431,-1.3800424 -0.42463,-0.3184713 -0.84926,-0.5307855 -1.4862,-0.5307855 -0.7431,0 -1.27389,0.2123142 -1.69851,0.7430997 -0.10616,0.1061571 -0.21232,0.3184714 -0.31848,0.5307856 -0.10615,0.2123142 -0.10615,0.4246284 -0.21231,0.6369426 0,0.3184714 -0.10616,0.6369427 -0.10616,1.0615711 0,0.4246285 0,0.955414 0,1.5923567 0,0.6369425 0,1.1677285 0,1.5923565 0,0.424629 0.10616,0.7431 0.10616,1.061571 0,0.318472 0.10616,0.530786 0.21231,0.636943 0.10616,0.212314 0.21232,0.318471 0.31848,0.530785 0.42462,0.424629 0.95541,0.7431 1.69851,0.7431 0.63694,0 1.16773,-0.212314 1.4862,-0.530785 0.42463,-0.318472 0.63694,-0.849257 0.7431,-1.380043 h 2.65393 c -0.21232,1.380043 -0.7431,2.441614 -1.69852,3.184714 z m 11.35881,0.955414 v -5.626327 h -4.56475 v 5.626327 h -2.65393 V 2.8184715 h 2.65393 v 5.5201698 h 4.56475 V 2.8184715 h 2.65393 V 16.300425 Z m 6.05096,0 V 2.8184715 h 8.9172 V 5.153928 h -6.26327 v 3.1847133 h 5.30785 v 2.3354567 h -5.30785 v 3.29087 h 6.26327 v 2.335457 z m -95.753715,15.39278 c -0.212314,0.530786 -0.636943,1.061572 -1.061571,1.4862 -0.424629,0.424628 -0.955414,0.7431 -1.592357,0.955414 -0.636943,0.212314 -1.273885,0.318471 -1.910828,0.318471 -0.636942,0 -1.380042,-0.106157 -1.910828,-0.318471 -0.636942,-0.212314 -1.167728,-0.530786 -1.592356,-0.955414 -0.424629,-0.424628 -0.849257,-0.955414 -1.061572,-1.4862 C 65.262209,31.16242 65.049895,30.41932 65.049895,29.782377 V 20.86518 h 2.653928 v 8.81104 c 0,0.7431 0.212314,1.380043 0.636942,1.804671 0.424629,0.424629 0.955414,0.636943 1.698514,0.636943 0.7431,0 1.273885,-0.212314 1.698514,-0.636943 0.424628,-0.424628 0.636943,-1.061571 0.636943,-1.804671 v -8.81104 h 2.653927 v 8.917197 c 0,0.636943 -0.212314,1.273886 -0.424628,1.910828 z m 11.358811,2.653928 -5.307856,-8.280254 v 8.280254 H 78.001062 V 20.86518 h 2.335457 l 5.307855,8.280255 V 20.86518 h 2.653928 v 13.481953 z m 5.626327,0 V 20.86518 H 94.2431 v 13.481953 z m 10.721867,0 h -2.01698 L 95.835457,20.86518 h 2.760085 l 2.760088,8.81104 2.76008,-8.81104 h 2.76009 z m 6.15711,0 V 20.86518 h 8.9172 v 2.335457 h -6.26327 v 3.184713 h 5.30786 v 2.335456 h -5.30786 v 3.290871 h 6.26327 v 2.335456 z m 18.78981,0 -2.65393,-5.414012 h -1.91082 v 5.414012 h -2.65393 V 20.86518 h 5.30785 c 0.63695,0 1.27389,0.106157 1.80467,0.318472 0.53079,0.212314 1.06158,0.530785 1.38005,0.849256 0.42463,0.424629 0.63694,0.849257 0.84925,1.273886 0.21232,0.530785 0.31847,1.061571 0.31847,1.592356 0,0.849257 -0.21231,1.698514 -0.74309,2.2293 -0.42463,0.636942 -1.06158,1.061571 -1.80468,1.273885 l 2.9724,5.838641 h -2.86624 z m -0.7431,-10.615711 c -0.31847,-0.318471 -0.84926,-0.530785 -1.38004,-0.530785 h -2.44161 v 3.609341 h 2.44161 c 0.53078,0 1.06157,-0.212314 1.38004,-0.530785 0.31847,-0.318471 0.53079,-0.7431 0.53079,-1.273885 0,-0.530786 -0.10616,-0.955414 -0.53079,-1.273886 z m 13.3758,9.660297 c -0.95542,0.7431 -2.12314,1.061571 -3.60934,1.061571 -1.06158,0 -2.01699,-0.106157 -2.76009,-0.424628 -0.7431,-0.318471 -1.4862,-0.7431 -2.12314,-1.380043 l 1.69851,-1.698513 c 0.42463,0.424628 0.84926,0.743099 1.38004,0.849257 0.53079,0.212314 1.16773,0.212314 1.80468,0.212314 1.59235,0 2.44161,-0.530786 2.44161,-1.698514 0,-0.424628 -0.10616,-0.849257 -0.31847,-1.061571 -0.21232,-0.212314 -0.63694,-0.424629 -1.27389,-0.530786 l -0.7431,-0.106157 -0.84925,-0.106157 c -1.16773,-0.212314 -2.01699,-0.530785 -2.65393,-1.167728 -0.63694,-0.636943 -0.95542,-1.4862 -0.95542,-2.653928 0,-1.273885 0.42463,-2.229299 1.27389,-2.972399 0.84926,-0.7431 2.01698,-1.167728 3.39703,-1.167728 0.95541,0 1.80467,0.106157 2.44161,0.318471 0.7431,0.212314 1.38004,0.636943 1.91083,1.167728 l -1.69852,1.698514 c -0.42462,-0.318471 -0.84925,-0.636942 -1.27388,-0.7431 -0.42463,-0.106157 -0.95541,-0.212314 -1.4862,-0.212314 -0.63694,0 -1.16773,0.212314 -1.59236,0.530786 -0.31847,0.318471 -0.53078,0.7431 -0.53078,1.273885 0,0.318471 0.10615,0.636943 0.42463,0.955414 0.31847,0.318471 0.63694,0.424629 1.27388,0.530786 l 0.84926,0.106157 0.7431,0.106157 c 0.63694,0.106157 1.16773,0.212314 1.4862,0.424628 0.42463,0.212315 0.7431,0.424629 1.06157,0.636943 0.7431,0.636943 1.06157,1.592357 1.06157,2.866242 0,1.380042 -0.53079,2.441613 -1.38004,3.184713 z m 3.92781,0.955414 V 20.86518 h 2.65393 v 13.481953 z m 11.04034,-11.146496 v 11.146496 h -2.65393 V 23.200637 H 148.7017 V 20.86518 h 9.66029 v 2.335457 z m 12.20807,11.146496 -0.84926,-2.441613 h -4.67091 l -0.84926,2.441613 h -2.76008 l 4.88322,-13.481953 h 2.01699 l 4.88323,13.481953 z m -3.07856,-9.55414 -1.69851,4.883227 h 3.39703 z m -4.35244,-6.369426 h 2.33546 v 2.335456 h -2.33546 z m 6.36943,0 v 2.335456 h 2.33545 v -2.335456 z m 9.66029,4.77707 v 11.146496 h -2.65392 V 23.200637 h -3.50319 V 20.86518 h 9.6603 v 2.335457 z M 74.604035,48.996814 c -0.106157,0.7431 -0.530786,1.4862 -1.167728,2.016985 -0.424629,0.424629 -0.955414,0.7431 -1.592357,0.955414 -0.636943,0.212315 -1.273885,0.318472 -2.016985,0.318472 H 64.943738 V 38.911889 h 4.883227 c 0.7431,0 1.380042,0.106157 2.016985,0.318471 0.636943,0.212315 1.167728,0.530786 1.592357,0.955414 0.318471,0.318472 0.530785,0.636943 0.743099,0.955414 0.212315,0.318472 0.318472,0.7431 0.424629,1.167728 0.106157,0.424629 0.106157,0.849257 0.212314,1.380043 0,0.530785 0,1.167728 0,1.910828 0,1.486199 0,2.653928 -0.212314,3.397027 z M 72.162421,43.26433 c -0.106157,-0.530785 -0.212314,-0.849256 -0.424628,-1.167728 -0.424629,-0.530785 -1.061571,-0.849257 -2.016985,-0.849257 h -2.016985 v 8.811041 h 2.016985 c 0.849257,0 1.486199,-0.318472 2.016985,-0.849257 0.212314,-0.318472 0.424628,-0.7431 0.424628,-1.167729 0.106157,-0.530785 0.106157,-1.273885 0.106157,-2.441613 0,-1.167728 -0.106157,-1.910828 -0.106157,-2.335457 z m 12.632696,9.129512 -2.653927,-5.414013 h -1.910828 v 5.414013 H 77.576434 V 38.911889 h 5.307855 c 0.636943,0 1.273886,0.106157 1.804671,0.318471 0.530786,0.212315 1.061571,0.530786 1.380043,0.849257 0.424628,0.424629 0.636942,0.849257 0.849257,1.273885 0.212314,0.530786 0.318471,1.061572 0.318471,1.592357 0,0.849257 -0.212314,1.698514 -0.7431,2.229299 -0.424628,0.636943 -1.061571,1.061572 -1.804671,1.273886 l 2.972399,5.838641 H 84.795117 Z M 84.158175,41.671974 c -0.318472,-0.318472 -0.849257,-0.530786 -1.380043,-0.530786 h -2.441613 v 3.609342 h 2.441613 c 0.530786,0 1.061571,-0.212314 1.380043,-0.530786 0.318471,-0.318471 0.530785,-0.743099 0.530785,-1.273885 0,-0.530785 -0.212314,-0.955414 -0.530785,-1.273885 z m 5.944798,10.721868 V 38.911889 h 8.917197 v 2.335456 h -6.263269 v 3.184714 h 5.307855 v 2.335456 h -5.307855 v 3.290871 h 6.263269 v 2.335456 z m 18.895967,-0.955414 c -0.95542,0.7431 -2.12314,1.061571 -3.60934,1.061571 -1.06157,0 -2.01699,-0.106157 -2.76009,-0.424628 -0.7431,-0.318472 -1.4862,-0.7431 -2.12314,-1.380043 l 1.59236,-1.698514 c 0.42462,0.424629 0.84925,0.7431 1.38004,0.849257 0.53078,0.212315 1.16773,0.212315 1.80467,0.212315 1.59236,0 2.44161,-0.530786 2.44161,-1.698514 0,-0.424629 -0.10615,-0.849257 -0.31847,-1.061571 -0.21231,-0.212315 -0.63694,-0.424629 -1.27388,-0.530786 l -0.7431,-0.106157 -0.84926,-0.106157 c -1.16773,-0.212314 -2.01699,-0.530786 -2.65393,-1.167728 -0.63694,-0.636943 -0.95541,-1.4862 -0.95541,-2.653928 0,-1.273885 0.42463,-2.229299 1.27388,-2.972399 0.84926,-0.7431 2.01699,-1.167728 3.39703,-1.167728 0.95542,0 1.80467,0.106157 2.44161,0.318471 0.7431,0.212314 1.38005,0.636943 1.91083,1.167728 l -1.69851,1.698514 c -0.42463,-0.318471 -0.84926,-0.636943 -1.27389,-0.7431 -0.42462,-0.106157 -0.95541,-0.212314 -1.4862,-0.212314 -0.63694,0 -1.16772,0.212314 -1.59235,0.530785 -0.31847,0.318472 -0.53079,0.7431 -0.53079,1.273886 0,0.318471 0.10616,0.636942 0.42463,0.955414 0.31847,0.318471 0.63694,0.424628 1.27389,0.530785 l 0.84925,0.106157 0.7431,0.106158 c 0.63694,0.106157 1.16773,0.212314 1.4862,0.424628 0.42463,0.212314 0.7431,0.424628 1.06157,0.636943 0.7431,0.636942 1.06157,1.592356 1.06157,2.866242 0.10616,1.380042 -0.42462,2.441613 -1.27388,3.184713 z m 13.48195,-2.441614 c -0.10616,0.7431 -0.53078,1.4862 -1.16773,2.016985 -0.42463,0.424629 -0.95541,0.7431 -1.59235,0.955414 -0.63695,0.212315 -1.27389,0.318472 -2.01699,0.318472 h -4.88323 V 38.911889 h 4.88323 c 0.7431,0 1.38004,0.106157 2.01699,0.318471 0.63694,0.212315 1.16772,0.530786 1.59235,0.955414 0.31847,0.318472 0.53079,0.636943 0.7431,0.955414 0.21232,0.318472 0.31847,0.7431 0.42463,1.167728 0.10616,0.424629 0.10616,0.849257 0.21232,1.380043 0,0.530785 0,1.167728 0,1.910828 0,1.486199 0,2.653928 -0.21232,3.397027 z m -2.44161,-5.732484 c -0.10616,-0.530785 -0.21232,-0.849256 -0.42463,-1.167728 -0.42463,-0.530785 -1.06157,-0.849257 -2.01699,-0.849257 h -2.01698 v 8.811041 h 2.01698 c 0.84926,0 1.4862,-0.318472 2.01699,-0.849257 0.21231,-0.318472 0.42463,-0.7431 0.42463,-1.167729 0.10616,-0.530785 0.10616,-1.273885 0.10616,-2.441613 0,-1.167728 -0.10616,-1.910828 -0.10616,-2.335457 z m 5.41401,9.129512 V 38.911889 h 8.9172 v 2.335456 h -6.26327 v 3.184714 h 5.30785 v 2.335456 h -5.30785 v 3.290871 h 6.26327 v 2.335456 z m 19.53291,0 -5.30786,-8.280255 v 8.280255 h -2.65392 V 38.911889 h 2.33545 l 5.30786,8.280255 v -8.280255 h 2.65393 V 52.393842 Z M 42.226116,52.287685 57.194269,37.319532 V 17.892781 L 42.226116,2.9246287 H 22.693208 L 7.7250556,17.892781 v 0 0 19.426751 L 22.693208,52.287685 Z M 23.330151,50.801485 9.2112552,36.68259 v -18.259023 0 L 23.330151,4.3046711 H 41.589174 L 55.708069,18.423567 V 36.68259 L 41.589174,50.801485 Z M 27.257964,35.090233 V 19.378981 H 12.502126 L 24.497879,7.3832273 H 40.421445 L 52.417199,19.378981 v 0 0 H 37.661361 v 15.711252 z m 11.995753,1.4862 V 20.86518 H 54.22187 v 0 0 0 -1.804671 L 41.058388,5.8970277 H 23.860936 L 10.697455,19.060509 v 1.804671 h 14.968152 v 15.711253 z m 1.167728,11.252653 12.208068,-12.208067 v -11.677283 0 0 H 42.119959 V 39.654989 H 22.693208 V 23.837579 H 12.183654 v 11.677282 l 12.314225,12.208068 h 15.923566 z m -16.560509,1.4862 -13.163481,-13.163482 v -13.800424 0 0 H 24.179408 V 38.062632 H 40.739917 V 22.35138 H 54.22187 V 36.151804 L 41.058388,49.315286 Z"
   id="path1"
   style="fill:#000000;fill-opacity:1;stroke-width:1" />

</svg>
